# xmcd
#
# Track frame offsets:
#	150
#	15904
#	36339
#	52010
#	61658
#	74589
#	89878
#	101689
#	115108
#	129973
#	140567
#	155078
#	172978
#
# Disc length: 2508 seconds
#
# Revision: 1
# Processed by: cddbd v1.5.2PL0 Copyright (c) Steve Scherf et al.
# Submitted via: audiograbber 1.83.01
#
DISCID=b409ca0d
DTITLE=The Western Distributors - The Western Distributors
DYEAR=2018
DGENRE=Country
TTITLE0=Drop Me Off
TTITLE1=Between The Suns
TTITLE2=No One Will Miss Me
TTITLE3=Driftin
TTITLE4=You Got Me
TTITLE5=The Man Who Stole The Blues
TTITLE6=The Luckiest Man Alive
TTITLE7=Fishing Pole
TTITLE8=I Don't Care
TTITLE9=Love Got In The Way
TTITLE10=There Should Be Love
TTITLE11=The Wrecker And His Missus
TTITLE12=Walking Home
EXTD=
EXTT0=
EXTT1=
EXTT2=
EXTT3=
EXTT4=
EXTT5=
EXTT6=
EXTT7=
EXTT8=
EXTT9=
EXTT10=
EXTT11=
EXTT12=
PLAYORDER=
